<?xml version="1.0" encoding="UTF-8" standalone="no"?>
<!DOCTYPE svg PUBLIC "-//W3C//DTD SVG 1.1//EN"
 "http://www.w3.org/Graphics/SVG/1.1/DTD/svg11.dtd">
<!-- Generated by graphviz version 9.0.0 (20230911.1827)
 -->
<!-- Pages: 1 -->
<svg width="863pt" height="133pt"
 viewBox="0.00 0.00 863.00 132.50" xmlns="http://www.w3.org/2000/svg" xmlns:xlink="http://www.w3.org/1999/xlink">
<g id="graph0" class="graph" transform="scale(1 1) rotate(0) translate(4 128.5)">
<polygon fill="white" stroke="none" points="-4,4 -4,-128.5 859,-128.5 859,4 -4,4"/>
<!-- z05 -->
<g id="node1" class="node">
<title>z05</title>
<ellipse fill="none" stroke="red" cx="63" cy="-18" rx="27" ry="18"/>
<text text-anchor="middle" x="63" y="-12.95" font-family="Times,serif" font-size="14.00">z05</text>
</g>
<!-- x00 -->
<g id="node2" class="node">
<title>x00</title>
<ellipse fill="none" stroke="black" cx="27" cy="-106.5" rx="27" ry="18"/>
<text text-anchor="middle" x="27" y="-101.45" font-family="Times,serif" font-size="14.00">x00</text>
</g>
<!-- x00&#45;&gt;z05 -->
<g id="edge1" class="edge">
<title>x00&#45;&gt;z05</title>
<path fill="none" stroke="black" d="M33.61,-88.75C37.63,-78.66 42.91,-65.56 47.75,-54 48.81,-51.47 49.92,-48.85 51.05,-46.23"/>
<polygon fill="black" stroke="black" points="54.25,-47.65 55.01,-37.08 47.82,-44.87 54.25,-47.65"/>
<text text-anchor="middle" x="62.62" y="-57.2" font-family="Times,serif" font-size="14.00">AND</text>
</g>
<!-- y00 -->
<g id="node3" class="node">
<title>y00</title>
<ellipse fill="none" stroke="black" cx="99" cy="-106.5" rx="27" ry="18"/>
<text text-anchor="middle" x="99" y="-101.45" font-family="Times,serif" font-size="14.00">y00</text>
</g>
<!-- y00&#45;&gt;z05 -->
<g id="edge2" class="edge">
<title>y00&#45;&gt;z05</title>
<path fill="none" stroke="black" d="M92.06,-88.82C87.03,-76.74 80.12,-60.13 74.3,-46.14"/>
<polygon fill="black" stroke="black" points="77.58,-44.91 70.5,-37.02 71.11,-47.6 77.58,-44.91"/>
<text text-anchor="middle" x="99.62" y="-57.2" font-family="Times,serif" font-size="14.00">AND</text>
</g>
<!-- z02 -->
<g id="node4" class="node">
<title>z02</title>
<ellipse fill="none" stroke="red" cx="207" cy="-18" rx="27" ry="18"/>
<text text-anchor="middle" x="207" y="-12.95" font-family="Times,serif" font-size="14.00">z02</text>
</g>
<!-- x01 -->
<g id="node5" class="node">
<title>x01</title>
<ellipse fill="none" stroke="black" cx="171" cy="-106.5" rx="27" ry="18"/>
<text text-anchor="middle" x="171" y="-101.45" font-family="Times,serif" font-size="14.00">x01</text>
</g>
<!-- x01&#45;&gt;z02 -->
<g id="edge3" class="edge">
<title>x01&#45;&gt;z02</title>
<path fill="none" stroke="black" d="M177.61,-88.75C181.63,-78.66 186.91,-65.56 191.75,-54 192.81,-51.47 193.92,-48.85 195.05,-46.23"/>
<polygon fill="black" stroke="black" points="198.25,-47.65 199.01,-37.08 191.82,-44.87 198.25,-47.65"/>
<text text-anchor="middle" x="206.62" y="-57.2" font-family="Times,serif" font-size="14.00">AND</text>
</g>
<!-- y01 -->
<g id="node6" class="node">
<title>y01</title>
<ellipse fill="none" stroke="black" cx="243" cy="-106.5" rx="27" ry="18"/>
<text text-anchor="middle" x="243" y="-101.45" font-family="Times,serif" font-size="14.00">y01</text>
</g>
<!-- y01&#45;&gt;z02 -->
<g id="edge4" class="edge">
<title>y01&#45;&gt;z02</title>
<path fill="none" stroke="black" d="M236.06,-88.82C231.03,-76.74 224.12,-60.13 218.3,-46.14"/>
<polygon fill="black" stroke="black" points="221.58,-44.91 214.5,-37.02 215.11,-47.6 221.58,-44.91"/>
<text text-anchor="middle" x="243.62" y="-57.2" font-family="Times,serif" font-size="14.00">AND</text>
</g>
<!-- z01 -->
<g id="node7" class="node">
<title>z01</title>
<ellipse fill="none" stroke="red" cx="351" cy="-18" rx="27" ry="18"/>
<text text-anchor="middle" x="351" y="-12.95" font-family="Times,serif" font-size="14.00">z01</text>
</g>
<!-- x02 -->
<g id="node8" class="node">
<title>x02</title>
<ellipse fill="none" stroke="black" cx="315" cy="-106.5" rx="27" ry="18"/>
<text text-anchor="middle" x="315" y="-101.45" font-family="Times,serif" font-size="14.00">x02</text>
</g>
<!-- x02&#45;&gt;z01 -->
<g id="edge5" class="edge">
<title>x02&#45;&gt;z01</title>
<path fill="none" stroke="black" d="M321.61,-88.75C325.63,-78.66 330.91,-65.56 335.75,-54 336.81,-51.47 337.92,-48.85 339.05,-46.23"/>
<polygon fill="black" stroke="black" points="342.25,-47.65 343.01,-37.08 335.82,-44.87 342.25,-47.65"/>
<text text-anchor="middle" x="349.62" y="-57.2" font-family="Times,serif" font-size="14.00">AND</text>
</g>
<!-- y02 -->
<g id="node9" class="node">
<title>y02</title>
<ellipse fill="none" stroke="black" cx="387" cy="-106.5" rx="27" ry="18"/>
<text text-anchor="middle" x="387" y="-101.45" font-family="Times,serif" font-size="14.00">y02</text>
</g>
<!-- y02&#45;&gt;z01 -->
<g id="edge6" class="edge">
<title>y02&#45;&gt;z01</title>
<path fill="none" stroke="black" d="M380.06,-88.82C375.03,-76.74 368.12,-60.13 362.3,-46.14"/>
<polygon fill="black" stroke="black" points="365.58,-44.91 358.5,-37.02 359.11,-47.6 365.58,-44.91"/>
<text text-anchor="middle" x="386.62" y="-57.2" font-family="Times,serif" font-size="14.00">AND</text>
</g>
<!-- z03 -->
<g id="node10" class="node">
<title>z03</title>
<ellipse fill="none" stroke="red" cx="495" cy="-18" rx="27" ry="18"/>
<text text-anchor="middle" x="495" y="-12.95" font-family="Times,serif" font-size="14.00">z03</text>
</g>
<!-- x03 -->
<g id="node11" class="node">
<title>x03</title>
<ellipse fill="none" stroke="black" cx="459" cy="-106.5" rx="27" ry="18"/>
<text text-anchor="middle" x="459" y="-101.45" font-family="Times,serif" font-size="14.00">x03</text>
</g>
<!-- x03&#45;&gt;z03 -->
<g id="edge7" class="edge">
<title>x03&#45;&gt;z03</title>
<path fill="none" stroke="black" d="M465.61,-88.75C469.63,-78.66 474.91,-65.56 479.75,-54 480.81,-51.47 481.92,-48.85 483.05,-46.23"/>
<polygon fill="black" stroke="black" points="486.25,-47.65 487.01,-37.08 479.82,-44.87 486.25,-47.65"/>
<text text-anchor="middle" x="493.62" y="-57.2" font-family="Times,serif" font-size="14.00">AND</text>
</g>
<!-- y03 -->
<g id="node12" class="node">
<title>y03</title>
<ellipse fill="none" stroke="black" cx="531" cy="-106.5" rx="27" ry="18"/>
<text text-anchor="middle" x="531" y="-101.45" font-family="Times,serif" font-size="14.00">y03</text>
</g>
<!-- y03&#45;&gt;z03 -->
<g id="edge8" class="edge">
<title>y03&#45;&gt;z03</title>
<path fill="none" stroke="black" d="M524.06,-88.82C519.03,-76.74 512.12,-60.13 506.3,-46.14"/>
<polygon fill="black" stroke="black" points="509.58,-44.91 502.5,-37.02 503.11,-47.6 509.58,-44.91"/>
<text text-anchor="middle" x="530.62" y="-57.2" font-family="Times,serif" font-size="14.00">AND</text>
</g>
<!-- z04 -->
<g id="node13" class="node">
<title>z04</title>
<ellipse fill="none" stroke="red" cx="666" cy="-18" rx="27" ry="18"/>
<text text-anchor="middle" x="666" y="-12.95" font-family="Times,serif" font-size="14.00">z04</text>
</g>
<!-- x04 -->
<g id="node14" class="node">
<title>x04</title>
<ellipse fill="none" stroke="black" cx="603" cy="-106.5" rx="27" ry="18"/>
<text text-anchor="middle" x="603" y="-101.45" font-family="Times,serif" font-size="14.00">x04</text>
</g>
<!-- x04&#45;&gt;z04 -->
<g id="edge9" class="edge">
<title>x04&#45;&gt;z04</title>
<path fill="none" stroke="black" d="M612.45,-89.32C618.7,-78.97 627.28,-65.39 635.75,-54 638.61,-50.16 641.78,-46.21 644.95,-42.41"/>
<polygon fill="black" stroke="black" points="647.39,-44.94 651.26,-35.08 642.08,-40.38 647.39,-44.94"/>
<text text-anchor="middle" x="649.62" y="-57.2" font-family="Times,serif" font-size="14.00">AND</text>
</g>
<!-- y04 -->
<g id="node15" class="node">
<title>y04</title>
<ellipse fill="none" stroke="black" cx="675" cy="-106.5" rx="27" ry="18"/>
<text text-anchor="middle" x="675" y="-101.45" font-family="Times,serif" font-size="14.00">y04</text>
</g>
<!-- y04&#45;&gt;z04 -->
<g id="edge10" class="edge">
<title>y04&#45;&gt;z04</title>
<path fill="none" stroke="black" d="M673.22,-88.41C672.01,-76.76 670.37,-61.05 668.97,-47.52"/>
<polygon fill="black" stroke="black" points="672.48,-47.44 667.96,-37.86 665.52,-48.16 672.48,-47.44"/>
<text text-anchor="middle" x="685.62" y="-57.2" font-family="Times,serif" font-size="14.00">AND</text>
</g>
<!-- z00 -->
<g id="node16" class="node">
<title>z00</title>
<ellipse fill="none" stroke="red" cx="774" cy="-18" rx="27" ry="18"/>
<text text-anchor="middle" x="774" y="-12.95" font-family="Times,serif" font-size="14.00">z00</text>
</g>
<!-- x05 -->
<g id="node17" class="node">
<title>x05</title>
<ellipse fill="none" stroke="black" cx="756" cy="-106.5" rx="27" ry="18"/>
<text text-anchor="middle" x="756" y="-101.45" font-family="Times,serif" font-size="14.00">x05</text>
</g>
<!-- x05&#45;&gt;z00 -->
<g id="edge11" class="edge">
<title>x05&#45;&gt;z00</title>
<path fill="none" stroke="black" d="M759.56,-88.41C762,-76.68 765.29,-60.84 768.12,-47.25"/>
<polygon fill="black" stroke="black" points="771.53,-48.04 770.14,-37.54 764.68,-46.61 771.53,-48.04"/>
<text text-anchor="middle" x="780.62" y="-57.2" font-family="Times,serif" font-size="14.00">AND</text>
</g>
<!-- y05 -->
<g id="node18" class="node">
<title>y05</title>
<ellipse fill="none" stroke="black" cx="828" cy="-106.5" rx="27" ry="18"/>
<text text-anchor="middle" x="828" y="-101.45" font-family="Times,serif" font-size="14.00">y05</text>
</g>
<!-- y05&#45;&gt;z00 -->
<g id="edge12" class="edge">
<title>y05&#45;&gt;z00</title>
<path fill="none" stroke="black" d="M819.3,-89C813.75,-78.76 806.27,-65.43 799,-54 796.85,-50.62 794.5,-47.12 792.14,-43.7"/>
<polygon fill="black" stroke="black" points="795.08,-41.8 786.44,-35.67 789.37,-45.85 795.08,-41.8"/>
<text text-anchor="middle" x="822.62" y="-57.2" font-family="Times,serif" font-size="14.00">AND</text>
</g>
</g>
</svg>
